<svg width="512" height="512" viewBox="0 0 512 512" fill="none" xmlns="http://www.w3.org/2000/svg">
<path d="M408 304C376.124 304.03 344.913 313.117 318.002 330.202C291.092 347.287 269.589 371.666 256 400.5C242.411 371.666 220.908 347.287 193.998 330.202C167.087 313.117 135.876 304.03 104 304H16V320C16 412.636 91.364 488 184 488H328C420.636 488 496 412.636 496 320V304H408ZM184 456C114.419 456 56.876 403.481 48.936 336H104C173.581 336 231.124 388.519 239.064 456H184ZM328 456H272.936C280.876 388.519 338.419 336 408 336H463.064C455.124 403.481 397.581 456 328 456Z" fill="#22DB8A"/>
<path d="M169.227 262.773C172.253 280.766 180.837 297.36 193.774 310.226L198.461 314.912H205.088C223.333 314.963 241.137 309.299 256 298.716C270.862 309.301 288.666 314.966 306.912 314.916H313.539L318.226 310.23C331.163 297.364 339.747 280.77 342.773 262.777C360.766 259.751 377.36 251.167 390.226 238.23L394.912 233.543V226.916C394.963 208.669 389.3 190.864 378.716 176C389.3 161.138 394.965 143.334 394.916 125.088V118.461L390.23 113.774C377.364 100.837 360.77 92.2532 342.777 89.2271C339.751 71.2341 331.167 54.6402 318.23 41.7741L313.543 37.0881H306.916C288.669 37.0365 270.864 42.7002 256 53.2841C241.138 42.6994 223.334 37.0344 205.088 37.0841H198.461L193.774 41.7701C180.837 54.6362 172.253 71.2301 169.227 89.2231C151.234 92.2492 134.64 100.833 121.774 113.77L117.088 118.457V125.084C117.036 143.331 122.7 161.136 133.284 176C122.699 190.862 117.034 208.666 117.084 226.912V233.539L121.77 238.226C134.637 251.164 151.232 259.748 169.227 262.773ZM165.491 164.687C156.617 155.867 150.98 144.31 149.491 131.887C159.327 124.152 171.487 119.964 184 120H200V104C199.964 91.4882 204.151 79.3303 211.884 69.4941C224.307 70.9828 235.863 76.6203 244.684 85.4941L256 96.8001L267.313 85.4871C276.133 76.6134 287.69 70.9759 300.113 69.4871C307.848 79.3248 312.037 91.4854 312 104V120H328C340.512 119.964 352.67 124.151 362.506 131.884C361.017 144.307 355.38 155.864 346.506 164.684L335.2 176L346.514 187.314C355.388 196.134 361.025 207.691 362.514 220.114C352.676 227.849 340.515 232.037 328 232H312V248C312.036 260.512 307.849 272.67 300.116 282.506C287.693 281.017 276.136 275.38 267.316 266.506L256 255.2L244.686 266.51C235.865 275.384 224.309 281.021 211.886 282.51C204.151 272.673 199.963 260.514 200 248V232H184C171.488 232.036 159.33 227.849 149.494 220.116C150.983 207.693 156.62 196.136 165.494 187.316L176.8 176L165.491 164.687Z" fill="#22DB8A"/>
</svg>
